<?xml version="1.0" encoding="utf-8"?>
<!-- Generator: Adobe Illustrator 15.0.0, SVG Export Plug-In . SVG Version: 6.00 Build 0)  -->
<!DOCTYPE svg PUBLIC "-//W3C//DTD SVG 1.1//EN" "http://www.w3.org/Graphics/SVG/1.1/DTD/svg11.dtd">
<svg version="1.1" xmlns="http://www.w3.org/2000/svg" xmlns:xlink="http://www.w3.org/1999/xlink" x="0px" y="0px" width="17.5px"
	 height="21.5px" viewBox="0 0 17.5 21.5" enable-background="new 0 0 17.5 21.5" xml:space="preserve">
<g id="Layer_2" display="none">
	<rect x="-1" y="-2.297" display="inline" fill="#231F20" width="36" height="45.297"/>
	<rect x="130" y="-22.648" display="inline" fill="#231F20" width="36" height="45.297"/>
</g>
<g id="Layer_1">
	<g>
		<rect x="4.5" y="12" fill="#FFFFFF" width="8.5" height="1.5"/>
	</g>
	<g>
		<rect x="4.5" y="15.417" fill="#FFFFFF" width="8.5" height="1.5"/>
	</g>
	<g>
		<rect x="4.5" y="8.583" fill="#FFFFFF" width="8.5" height="1.5"/>
	</g>
	<g id="XMLID_1_">
		<g>
			<polygon fill="#FFFFFF" points="17.5,19.5 17.5,21.5 15.5,21.5 2,21.5 0,21.5 0,19.5 0,2 0,0 2,0 11.015,0 11.015,1.5 1.5,1.5 
				1.5,20 16,20 16,6.32 16,6.305 17.5,6.305 17.5,6.32 			"/>
			<polygon fill="#FFFFFF" points="17.5,6.305 16,6.305 11.015,6.305 11.015,1.5 11.015,0 			"/>
		</g>
		<g>
		</g>
	</g>
	
		<line fill="none" stroke="#FFFFFF" stroke-width="3" stroke-linejoin="round" stroke-miterlimit="10" x1="140" y1="5.148" x2="157" y2="5.148"/>
	
		<line fill="none" stroke="#FFFFFF" stroke-width="3" stroke-linejoin="round" stroke-miterlimit="10" x1="140" y1="11.982" x2="157" y2="11.982"/>
	
		<line fill="none" stroke="#FFFFFF" stroke-width="3" stroke-linejoin="round" stroke-miterlimit="10" x1="140" y1="-1.685" x2="157" y2="-1.685"/>
	<g id="XMLID_2_">
		<g>
			<polygon fill="#FFFFFF" points="166,18.648 166,22.648 162,22.648 135,22.648 131,22.648 131,18.648 131,-16.352 131,-20.352 
				135,-20.352 153.03,-20.352 153.03,-17.352 134,-17.352 134,19.648 163,19.648 163,-7.711 163,-7.742 166,-7.742 166,-7.711 			
				"/>
			<polygon fill="#FFFFFF" points="166,-7.742 163,-7.742 153.03,-7.742 153.03,-17.352 153.03,-20.352 			"/>
		</g>
		<g>
		</g>
	</g>
</g>
</svg>
