<?xml version="1.0" encoding="utf-8"?>
<!-- Generator: Adobe Illustrator 15.0.0, SVG Export Plug-In . SVG Version: 6.00 Build 0)  -->
<!DOCTYPE svg PUBLIC "-//W3C//DTD SVG 1.1//EN" "http://www.w3.org/Graphics/SVG/1.1/DTD/svg11.dtd">
<svg version="1.1" id="Layer_1" xmlns="http://www.w3.org/2000/svg" xmlns:xlink="http://www.w3.org/1999/xlink" x="0px" y="0px"
	 width="371.463px" height="460.656px" viewBox="0 0 371.463 460.656" enable-background="new 0 0 371.463 460.656"
	 xml:space="preserve">
<g>
	<path fill="#231F20" d="M369.463,187.957c0-101.407-82.208-183.612-183.618-183.612C84.438,4.345,2.23,86.55,2.23,187.957
		c0,101.412,82.208,183.619,183.615,183.619C287.255,371.576,369.463,289.369,369.463,187.957z"/>
	<g>
		<g>
			<path fill="#EE4547" d="M44.27,238.43h33.903c3.281,0,5.537,0.34,6.781,1.016c1.243,0.679,2.763,2.487,4.579,5.428l25.43,39.326
				c0.449,0.794,0.673,1.528,0.673,2.204c0,0.68-0.48,1.272-1.439,1.779c-0.961,0.512-2.118,0.766-3.474,0.766H98.518
				c-1.583,0-3.391-0.789-5.425-2.372l-3.22-2.377l-46.624-36.275c-2.936-2.262-4.349-4.127-4.239-5.595
				c0.115-1.131,0.685-2.061,1.698-2.797C41.723,238.796,42.914,238.43,44.27,238.43z"/>
		</g>
		<path fill="#4CC1BF" d="M162.565,93.485h-25.358c-2.93,0-4.964,0.573-6.107,1.718c-1.146,1.144-1.721,3.176-1.721,6.102v179.465
			c0,2.921,0.576,4.953,1.721,6.102c1.143,1.145,3.177,1.715,6.107,1.715h25.358c2.924,0,4.962-0.57,6.104-1.715
			c1.145-1.148,1.721-3.181,1.721-6.102V101.304c0-2.925-0.576-4.958-1.721-6.102C167.527,94.058,165.489,93.485,162.565,93.485z"/>
		<path fill="#9BD8E1" d="M247.435,95.203c-1.143-1.145-3.178-1.718-6.104-1.718h-25.364c-2.924,0-4.959,0.573-6.102,1.718
			c-1.143,1.144-1.718,3.176-1.718,6.102v179.465c0,2.921,0.576,4.953,1.718,6.102c1.143,1.145,3.177,1.715,6.102,1.715h25.364
			c2.927,0,4.962-0.57,6.104-1.715c1.145-1.148,1.718-3.181,1.718-6.102V101.304C249.153,98.379,248.58,96.347,247.435,95.203z"/>
		<g>
			<path fill="#EE4547" d="M297.89,91.995c9.716,0,18.02,3.788,24.914,11.358c3.281,3.501,5.877,7.772,7.803,12.797
				c1.92,5.029,2.879,10.087,2.879,15.173c0,10.74-3.5,21.614-10.508,32.633c-7.008,11.02-16.388,20.369-28.145,28.061
				c-9.949,6.55-17.74,9.831-23.396,9.831c-2.257,0-4.124-0.679-5.589-2.035c-1.474-1.355-2.205-3.168-2.205-5.425
				c0-3.394,2.144-6.22,6.441-8.475c10.283-5.318,17.797-10.574,22.549-15.767c4.52-4.862,6.778-8.422,6.778-10.682
				c0-2.147-1.692-3.448-5.085-3.903l-2.203-0.335l-2.547-0.17c-7.348-1.131-13.305-4.549-17.883-10.257
				c-4.576-5.701-6.868-12.629-6.868-20.765c0-8.362,2.827-15.599,8.479-21.699C279.747,95.443,287.94,91.995,297.89,91.995z"/>
		</g>
	</g>
</g>
<g>
	<path fill="#231F20" d="M4.024,437.99l1.246-0.847c1.296,2.393,3.59,3.838,6.483,3.838c3.889,0,6.63-2.193,6.63-6.981v-25.878
		h1.595v25.979c0,5.584-3.588,8.327-8.226,8.327C7.865,442.428,5.471,440.433,4.024,437.99z"/>
	<path fill="#231F20" d="M33.094,441.13c2.841,0,4.438-0.996,5.683-2.542l0.999,0.896c-1.446,1.848-3.641,2.944-6.682,2.944
		c-4.887,0-8.327-3.641-8.327-8.327c0-4.688,3.589-8.326,7.977-8.326c4.687,0,7.729,3.54,7.829,8.625H26.314
		C26.462,438.588,29.355,441.13,33.094,441.13z M39.027,433.104c-0.398-3.392-2.342-6.034-6.283-6.034
		c-3.49,0-5.983,2.544-6.381,6.034H39.027z"/>
	<path fill="#231F20" d="M43.667,438.488l1.297-0.548c0.847,1.995,2.692,3.19,5.234,3.19c2.343,0,3.99-1.145,3.99-3.09
		c0-2.046-1.695-2.843-4.588-3.791c-2.992-0.997-4.836-1.894-4.836-4.587c0-2.292,1.894-3.888,4.688-3.888
		c2.542,0,4.087,1.095,4.986,2.789l-1.249,0.648c-0.748-1.295-1.843-2.143-3.738-2.143c-1.945,0-3.242,0.998-3.242,2.593
		c0,1.945,1.496,2.442,3.741,3.192c3.19,1.046,5.732,2.044,5.732,5.135c0,2.842-2.294,4.438-5.484,4.438
		C46.759,442.428,44.714,440.832,43.667,438.488z"/>
	<path fill="#231F20" d="M59.125,438.488l1.297-0.548c0.845,1.995,2.692,3.19,5.234,3.19c2.344,0,3.99-1.145,3.99-3.09
		c0-2.046-1.696-2.843-4.587-3.791c-2.994-0.997-4.837-1.894-4.837-4.587c0-2.292,1.894-3.888,4.686-3.888
		c2.544,0,4.089,1.095,4.986,2.789l-1.247,0.648c-0.747-1.295-1.843-2.143-3.739-2.143c-1.943,0-3.24,0.998-3.24,2.593
		c0,1.945,1.495,2.442,3.741,3.192c3.19,1.046,5.733,2.044,5.733,5.135c0,2.842-2.295,4.438-5.485,4.438
		C62.217,442.428,60.17,440.832,59.125,438.488z"/>
	<path fill="#231F20" d="M75.679,417.845c0-0.7,0.598-1.248,1.246-1.248c0.648,0,1.248,0.548,1.248,1.248
		c0,0.697-0.599,1.245-1.248,1.245C76.277,419.09,75.679,418.542,75.679,417.845z M76.178,426.172h1.495v15.856h-1.495V426.172z"/>
	<path fill="#231F20" d="M82.558,434.101c0-4.688,3.492-8.326,8.03-8.326c2.44,0,4.385,0.746,5.933,2.393l-1.048,0.896
		c-1.197-1.344-2.792-1.993-4.884-1.993c-3.84,0-6.484,3.041-6.484,7.031c0,3.989,2.644,7.029,6.432,7.029
		c2.342,0,4.24-0.897,5.435-2.294l1.049,0.898c-1.497,1.796-3.791,2.693-6.483,2.693C86.049,442.428,82.558,438.788,82.558,434.101z
		"/>
	<path fill="#231F20" d="M111.928,431.956c0-3.489-1.694-4.886-4.438-4.886c-2.292,0-3.837,0.848-5.036,2.742l-1.096-0.749
		c1.494-2.242,3.439-3.288,6.132-3.288c3.59,0,5.935,1.944,5.935,6.083v10.171h-1.497v-2.094c-1.047,1.447-2.941,2.493-5.435,2.493
		c-3.441,0-6.184-1.695-6.184-5.037c0-3.341,2.942-4.838,6.231-4.838h5.387V431.956z M106.741,433.85
		c-2.592,0-4.936,0.898-4.936,3.541c0,2.595,2.045,3.688,4.885,3.688c2.595,0,5.237-1.345,5.237-4.337v-2.893H106.741z"/>
	<path fill="#231F20" d="M131.822,442.029h-1.595v-33.907h6.133c9.124,0,13.563,5.633,13.563,12.564s-4.439,12.517-13.563,12.517
		h-4.538V442.029z M136.162,431.807c8.774,0,12.165-4.986,12.165-11.121c0-6.132-3.391-11.167-12.165-11.167h-4.34v22.288H136.162z"
		/>
	<path fill="#231F20" d="M151.319,434.101c0-4.688,3.641-8.326,8.177-8.326c4.538,0,8.177,3.639,8.177,8.326
		c0,4.687-3.639,8.327-8.177,8.327C154.96,442.428,151.319,438.788,151.319,434.101z M166.129,434.101
		c0-3.99-2.793-7.031-6.633-7.031c-3.839,0-6.631,3.041-6.631,7.031c0,3.989,2.792,7.029,6.631,7.029
		C163.335,441.13,166.129,438.09,166.129,434.101z"/>
	<path fill="#231F20" d="M172.412,426.172h1.494v2.793c0.999-1.945,2.694-3.19,4.738-3.19c1.096,0,1.645,0.098,2.444,0.548
		l-0.55,1.247c-0.498-0.302-1.045-0.4-1.994-0.4c-2.493,0-4.638,2.444-4.638,5.686v9.174h-1.494V426.172z"/>
	<path fill="#231F20" d="M183.88,427.468v-1.296h2.242v-9.523h1.498v9.523h4.138v1.296h-4.138v11.12
		c0,1.496,0.549,2.491,1.995,2.491c0.797,0,1.544-0.397,2.043-0.796l0.747,1.099c-0.696,0.646-1.745,1.046-2.791,1.046
		c-2.196,0-3.493-1.447-3.493-3.641v-11.319H183.88z"/>
	<path fill="#4CC1BF" d="M211.718,445.886v-9.84c0-3.788-1.529-4.853-3.988-4.853h-3.125V429.4h3.125
		c2.459,0,3.988-0.998,3.988-4.786v-15.157c0-7.91,3.856-9.639,7.843-9.639h1.263v1.796h-1.263c-3.455,0-5.782,1.596-5.782,7.843
		v15.157c0,3.788-1.462,5.118-3.323,5.65c1.861,0.463,3.323,1.994,3.323,5.782v9.84c0,6.245,2.327,7.841,5.782,7.841h1.263v1.796
		h-1.263C215.575,455.523,211.718,453.795,211.718,445.886z"/>
	<path fill="#EE4547" d="M226.562,413.779h7.976c9.222,0,14.871,5.775,14.871,14.125s-5.607,14.125-14.871,14.125h-7.976V413.779z
		 M234.288,438.083c7.313,0,10.512-4.195,10.512-10.179c0-5.981-3.199-10.177-10.512-10.177h-3.282v20.355H234.288z"/>
	<path fill="#EE4547" d="M255.027,413.779h17.987v3.948H259.47v11.713h12.006v3.863H259.47v4.779h14.125v3.946h-18.568V413.779z"/>
	<path fill="#EE4547" d="M281.204,434.593c1.287,2.492,3.489,3.82,6.397,3.82c2.992,0,4.983-1.411,4.983-3.697
		c0-2.659-1.991-3.571-4.487-4.694l-1.951-0.871c-4.152-1.829-6.979-3.988-6.979-8.394c0-4.321,3.199-7.353,7.851-7.353
		c3.615,0,6.273,1.455,8.059,4.443l-3.364,2.204c-1.079-1.826-2.492-2.741-4.61-2.741c-2.285,0-3.614,1.328-3.614,3.282
		c0,2.241,1.372,3.114,4.445,4.486l1.954,0.872c4.278,1.909,7.101,3.862,7.101,8.642c0,5.191-3.986,7.809-9.345,7.809
		c-4.779,0-8.269-2.326-10.181-5.941L281.204,434.593z"/>
	<path fill="#EE4547" d="M302.646,413.779h4.443v28.25h-4.443V413.779z"/>
	<path fill="#EE4547" d="M312.823,427.904c0-8.35,6.397-14.499,14.501-14.499c5.233,0,8.391,1.871,10.717,4.488l-3.073,2.908
		c-1.704-1.87-3.656-3.366-7.77-3.366c-5.733,0-9.764,4.487-9.764,10.469c0,5.983,4.071,10.469,10.509,10.469
		c3.077,0,5.235-0.706,6.856-1.787v-3.198h-7.562v-3.947h11.674v9.265c-2.367,1.953-5.648,3.697-10.969,3.697
		C319.262,442.402,312.823,436.253,312.823,427.904z"/>
	<path fill="#EE4547" d="M349.225,423.46v18.568h-4.155v-28.665h0.332l18.113,18.985v-18.57h4.154v28.665h-0.332L349.225,423.46z"/>
</g>
</svg>
